<svg xmlns="http://www.w3.org/2000/svg" viewBox="0 0 20 20" aria-label="Goodreads Author"><path d="M9.85,5.47C8,5.47,7.08,6.91,7.08,8.58s.93,3,2.66,3a2.78,2.78,0,0,0,2.81-3A2.81,2.81,0,0,0,9.85,5.47Z"></path><path d="M20,10,18.35,8.05,19,5.55l-2.32-1L16.23,2l-2.51.11L12.23,0,10,1.22,7.77,0,6.29,2.09,3.77,2,3.31,4.52,1,5.55l.66,2.5L0,10,1.65,12,1,14.45l2.32,1L3.77,18l2.52-.11L7.77,20,10,18.78,12.23,20l1.49-2.09,2.51.11.46-2.55,2.32-1L18.35,12Zm-7.16,2c0,1.88-1.1,2.77-2.95,2.77-1.43,0-2.66-.63-2.7-2.18h.27c.06,1.37,1.13,1.91,2.42,1.91,1.71,0,2.69-.79,2.69-2.5V10h0a2.79,2.79,0,0,1-2.79,1.94c-2,0-2.95-1.53-2.95-3.31s1-3.38,3.05-3.38a2.7,2.7,0,0,1,2.69,2h0V5.36h.27Z"></path></svg>